<svg width="137" height="79" viewBox="0 0 137 79" fill="none" xmlns="http://www.w3.org/2000/svg">
<path d="M2.63105 52L4.51705 48.458L4.56306 39.258V23.618L1.34305 21.64H8.70306C11.0031 21.318 13.2571 21.088 15.3271 21.088C20.7551 21.088 24.0211 23.894 24.0211 28.402C24.0211 31.99 20.9391 35.302 16.9371 36.866H17.9491L22.9171 44.548C26.3671 49.654 27.4251 50.896 28.6671 52H22.9631C22.0891 51.402 21.3071 50.528 17.9491 45.422L13.0731 37.832L9.39306 37.234V50.022L12.6131 52H2.63105ZM9.39306 36.13L15.3731 36.498C17.8111 34.152 19.1451 31.484 19.1451 28.954C19.1451 24.4 16.0171 22.698 12.3371 22.698C11.6931 22.698 10.6811 22.744 9.39306 22.836V36.13ZM38.8643 52.23C33.2063 52.23 29.0203 47.63 29.0203 41.42C29.0203 36.912 31.5043 33.646 34.3563 31.576C35.9203 30.38 38.4043 29.092 40.3823 29.092C45.9483 29.092 50.0883 33.784 50.0883 39.994C50.0883 44.41 47.5583 47.63 44.7523 49.746C43.1883 50.942 40.7963 52.23 38.8643 52.23ZM33.4363 39.12C33.4363 46.158 37.6683 50.022 41.0723 50.022C41.9003 50.022 42.8663 49.93 43.7403 49.562C45.0743 47.814 45.6723 45.008 45.6723 42.432C45.6723 35.302 41.4863 31.3 37.8983 31.3C37.0703 31.3 36.2423 31.392 35.3683 31.714C33.8963 33.462 33.4363 36.406 33.4363 39.12ZM63.212 52.23C57.554 52.23 53.368 47.63 53.368 41.42C53.368 36.912 55.852 33.646 58.704 31.576C60.268 30.38 62.752 29.092 64.73 29.092C70.296 29.092 74.436 33.784 74.436 39.994C74.436 44.41 71.906 47.63 69.1 49.746C67.536 50.942 65.144 52.23 63.212 52.23ZM57.784 39.12C57.784 46.158 62.016 50.022 65.42 50.022C66.248 50.022 67.214 49.93 68.088 49.562C69.422 47.814 70.02 45.008 70.02 42.432C70.02 35.302 65.834 31.3 62.246 31.3C61.418 31.3 60.59 31.392 59.716 31.714C58.244 33.462 57.784 36.406 57.784 39.12ZM84.405 52.368C81.231 52.368 79.299 50.068 79.299 46.572V31.024L77.137 29.92L83.577 25.688V29.598L91.535 29.322L90.845 32.404L83.577 30.886V45.376C83.577 48.044 84.405 49.47 86.245 49.47C87.487 49.47 89.281 48.872 91.305 48.09L91.489 48.412C88.775 50.528 87.027 51.586 84.405 52.368ZM103.245 52.23C97.1269 52.23 93.0789 47.492 93.0789 41.466C93.0789 36.82 95.4249 33.6 98.2769 31.484C99.9329 30.288 102.693 29.092 104.809 29.092C108.535 29.092 111.341 32.772 111.341 37.418C111.341 38.384 111.341 39.074 111.249 39.856H97.4949C97.8169 46.158 101.497 49.378 105.131 49.378C106.833 49.378 108.719 48.504 110.743 47.4L110.927 47.722C108.581 49.792 106.465 51.218 103.245 52.23ZM97.4949 38.982L107.201 38.384C106.925 33.692 105.177 31.162 102.095 31.162C101.175 31.162 100.301 31.392 99.6569 31.622C98.3689 33.232 97.4949 35.854 97.4949 38.982ZM129.748 52.184C129.38 51.356 129.104 50.436 128.92 49.424C127.126 50.528 124.964 51.678 123.032 52.23C117.466 52.23 113.878 47.952 113.878 42.34C113.878 38.108 115.856 34.014 119.26 31.622C120.962 30.38 123.722 29.092 126.344 29.092C127.08 29.092 127.862 29.184 128.69 29.368V21.502L126.758 19.248L132.968 17.638V48.688L135.728 50.942L129.748 52.184ZM118.294 40.27C118.294 44.87 120.272 49.424 124.734 49.424C125.838 49.424 127.31 48.918 128.736 48.274C128.736 48.09 128.69 47.952 128.69 47.768V32.174C126.942 31.484 125.286 31.208 124.044 31.208C123.032 31.208 121.744 31.392 120.594 31.76C119.076 34.198 118.294 37.326 118.294 40.27Z" fill="#333333"/>
<path d="M4.82234 74.825C2.66334 74.825 1.43934 73.669 1.43934 72.513C1.43934 71.561 2.27234 70.694 3.02034 70.337C2.64634 70.099 2.40834 69.776 2.25534 69.317C2.57834 68.892 3.07134 68.467 3.58134 68.093C2.61234 67.685 1.93234 66.733 1.93234 65.577C1.93234 64.642 2.35734 63.911 3.27534 63.248C3.88734 62.806 4.46534 62.602 5.09434 62.602C5.65534 62.602 6.16534 62.772 6.59034 63.061L8.98734 62.67L8.80034 63.452L6.99834 63.384C7.47434 63.877 7.76334 64.557 7.76334 65.356C7.76334 66.308 7.33834 67.073 6.40334 67.719C5.82534 68.11 5.26434 68.314 4.63534 68.314C4.38034 68.314 4.12534 68.28 3.88734 68.212C3.61534 68.45 3.39434 68.637 3.17334 68.858C3.42834 69.453 3.93834 69.674 5.58734 69.912C7.72934 70.218 8.66434 70.898 8.66434 72.054C8.66434 73.635 6.87934 74.825 4.82234 74.825ZM2.28934 72.258C2.28934 73.414 3.46234 74.145 5.51934 74.145C6.19934 74.145 6.84534 74.043 7.40634 73.771C7.62734 73.38 7.78034 73.023 7.78034 72.581C7.78034 71.646 6.99834 71.204 5.07734 70.932C4.29534 70.813 3.71734 70.694 3.25834 70.473C2.61234 71.034 2.28934 71.68 2.28934 72.258ZM3.00334 65.203C3.00334 66.682 3.90434 67.753 5.17934 67.753C5.50234 67.753 5.82534 67.685 6.13134 67.549C6.52234 66.903 6.70934 66.308 6.70934 65.679C6.70934 64.251 5.75734 63.146 4.58434 63.146C4.27834 63.146 3.95534 63.214 3.63234 63.333C3.19034 63.945 3.00334 64.54 3.00334 65.203ZM17.9833 71.068C17.8133 70.643 17.6943 70.116 17.6433 69.538C16.8273 70.218 15.7903 70.864 14.9913 71.068C13.4953 71.068 12.9173 70.082 12.9173 69.215C12.9173 67.566 14.8213 66.937 17.6433 66.784V65.73C17.6433 63.911 17.1843 63.129 15.9263 63.129C15.6883 63.129 15.5183 63.129 15.3313 63.146L13.8523 64.761L13.2913 63.775C14.3963 63.061 15.4843 62.602 16.5383 62.602C17.9663 62.602 18.7823 63.537 18.7823 65.288V70.031L19.7853 70.643L17.9833 71.068ZM14.0903 68.96C14.0903 69.606 14.4473 70.354 15.3483 70.354C15.8243 70.354 16.6573 69.895 17.6433 69.181V67.328C16.5723 67.328 15.6543 67.362 14.8213 67.515C14.3793 67.821 14.0903 68.382 14.0903 68.96ZM26.9918 71H24.5438L25.0878 69.997V63.724L24.4588 63.044L26.1078 62.619C26.1928 63.316 26.2268 64.047 26.2438 64.778C26.9068 63.809 27.7568 62.942 28.4368 62.602C28.8958 62.602 29.2358 62.704 29.5418 62.891L29.3548 63.945C28.7598 63.656 28.5218 63.605 28.2328 63.605C27.6888 63.605 26.9578 64.217 26.2438 65.237V65.866V70.507L26.9918 71ZM39.2608 71.068C39.1418 70.762 39.0398 70.422 38.9718 70.031C38.3258 70.439 37.4418 70.864 36.7448 71.068C34.7728 71.068 33.3448 69.623 33.3448 67.345C33.3448 65.713 34.0758 64.251 35.1808 63.452C35.7928 63.01 36.7788 62.602 37.7478 62.602C38.1388 62.602 38.5298 62.67 38.9208 62.772V59.508L38.2748 58.811L40.0598 58.335V70.031L41.0628 70.643L39.2608 71.068ZM34.5178 66.869C34.5178 68.535 35.3168 70.303 37.1358 70.303C37.5948 70.303 38.3258 70.014 38.9378 69.691C38.9208 69.606 38.9208 69.504 38.9208 69.402V63.571C38.2918 63.316 37.6288 63.214 37.1698 63.214C36.7618 63.214 36.1498 63.299 35.6228 63.486C34.9088 64.455 34.5178 65.713 34.5178 66.869ZM49.0662 71.068C46.8902 71.068 45.3942 69.283 45.3942 67.056C45.3942 65.543 46.0912 64.251 47.1282 63.452C47.7232 62.993 48.6582 62.602 49.4572 62.602C50.9192 62.602 51.9052 63.962 51.9052 65.662C51.9052 65.968 51.9052 66.189 51.8712 66.461H46.5672V66.512C46.5672 69.215 48.2842 70.286 49.4912 70.286C50.1542 70.286 50.9362 69.861 51.6672 69.402L51.7522 69.521C50.9872 70.235 50.1882 70.762 49.0662 71.068ZM46.5842 66.189L50.8002 65.968C50.7152 64.183 50.0692 63.197 48.7772 63.197C48.3012 63.197 47.8932 63.316 47.6212 63.435C47.0772 64.047 46.6352 64.999 46.5842 66.189ZM59.2901 71H56.7741L57.3181 69.997V63.724L56.6891 63.044L58.3381 62.602C58.4061 63.146 58.4401 63.707 58.4571 64.285C59.3411 63.571 60.3271 62.976 61.3641 62.602C63.1321 62.602 63.8291 63.418 63.8291 65.271V70.558L64.5771 71H62.1461L62.6901 70.133V65.713C62.6901 64.081 62.3161 63.299 61.1431 63.299C60.5651 63.299 59.5111 63.928 58.4741 64.642V65.866V70.49L59.2901 71ZM82.2787 71.068C82.1597 70.762 82.0577 70.422 81.9897 70.031C81.3437 70.439 80.4597 70.864 79.7627 71.068C77.7907 71.068 76.3627 69.623 76.3627 67.345C76.3627 65.713 77.0937 64.251 78.1987 63.452C78.8107 63.01 79.7967 62.602 80.7657 62.602C81.1567 62.602 81.5477 62.67 81.9387 62.772V59.508L81.2927 58.811L83.0777 58.335V70.031L84.0807 70.643L82.2787 71.068ZM77.5357 66.869C77.5357 68.535 78.3347 70.303 80.1537 70.303C80.6127 70.303 81.3437 70.014 81.9557 69.691C81.9387 69.606 81.9387 69.504 81.9387 69.402V63.571C81.3097 63.316 80.6467 63.214 80.1877 63.214C79.7797 63.214 79.1677 63.299 78.6407 63.486C77.9267 64.455 77.5357 65.713 77.5357 66.869ZM92.0841 71.068C89.9081 71.068 88.4121 69.283 88.4121 67.056C88.4121 65.543 89.1091 64.251 90.1461 63.452C90.7411 62.993 91.6761 62.602 92.4751 62.602C93.9371 62.602 94.9231 63.962 94.9231 65.662C94.9231 65.968 94.9231 66.189 94.8891 66.461H89.5851V66.512C89.5851 69.215 91.3021 70.286 92.5091 70.286C93.1721 70.286 93.9541 69.861 94.6851 69.402L94.7701 69.521C94.0051 70.235 93.2061 70.762 92.0841 71.068ZM89.6021 66.189L93.8181 65.968C93.7331 64.183 93.0871 63.197 91.7951 63.197C91.3191 63.197 90.9111 63.316 90.6391 63.435C90.0951 64.047 89.6531 64.999 89.6021 66.189ZM101.811 71.068C100.927 71.068 100.094 70.83 99.5667 70.558L99.6687 69.521C100.519 70.014 101.675 70.405 102.525 70.405C102.814 70.405 103.086 70.371 103.443 70.269C103.715 69.844 103.817 69.487 103.817 69.198C103.817 68.348 102.984 67.702 101.862 67.022C100.264 66.07 99.6687 65.441 99.6687 64.693C99.6687 64.115 100.009 63.588 100.57 63.197C101.063 62.84 101.76 62.602 102.491 62.602C103.154 62.602 103.766 62.772 104.31 63.095L104.191 64.081C103.103 63.401 102.287 63.163 101.675 63.163C101.437 63.163 101.216 63.197 101.012 63.231C100.74 63.622 100.689 63.928 100.689 64.166C100.689 64.846 101.012 65.22 102.576 66.121C103.817 66.835 104.786 67.583 104.786 68.586C104.786 69.266 104.327 69.844 103.749 70.371C103.188 70.847 102.695 71.068 101.811 71.068ZM112.048 71H109.6L110.161 69.997V63.741L109.515 63.044L111.3 62.568V70.507L112.048 71ZM110.654 61.157C110.229 61.157 109.821 60.868 109.821 60.426C109.821 60.086 109.991 59.882 110.161 59.78C110.263 59.712 110.569 59.576 110.654 59.576C111.079 59.576 111.487 59.865 111.487 60.307C111.487 60.647 111.317 60.851 111.147 60.953C111.045 61.021 110.739 61.157 110.654 61.157ZM119.785 74.825C117.626 74.825 116.402 73.669 116.402 72.513C116.402 71.561 117.235 70.694 117.983 70.337C117.609 70.099 117.371 69.776 117.218 69.317C117.541 68.892 118.034 68.467 118.544 68.093C117.575 67.685 116.895 66.733 116.895 65.577C116.895 64.642 117.32 63.911 118.238 63.248C118.85 62.806 119.428 62.602 120.057 62.602C120.618 62.602 121.128 62.772 121.553 63.061L123.95 62.67L123.763 63.452L121.961 63.384C122.437 63.877 122.726 64.557 122.726 65.356C122.726 66.308 122.301 67.073 121.366 67.719C120.788 68.11 120.227 68.314 119.598 68.314C119.343 68.314 119.088 68.28 118.85 68.212C118.578 68.45 118.357 68.637 118.136 68.858C118.391 69.453 118.901 69.674 120.55 69.912C122.692 70.218 123.627 70.898 123.627 72.054C123.627 73.635 121.842 74.825 119.785 74.825ZM117.252 72.258C117.252 73.414 118.425 74.145 120.482 74.145C121.162 74.145 121.808 74.043 122.369 73.771C122.59 73.38 122.743 73.023 122.743 72.581C122.743 71.646 121.961 71.204 120.04 70.932C119.258 70.813 118.68 70.694 118.221 70.473C117.575 71.034 117.252 71.68 117.252 72.258ZM117.966 65.203C117.966 66.682 118.867 67.753 120.142 67.753C120.465 67.753 120.788 67.685 121.094 67.549C121.485 66.903 121.672 66.308 121.672 65.679C121.672 64.251 120.72 63.146 119.547 63.146C119.241 63.146 118.918 63.214 118.595 63.333C118.153 63.945 117.966 64.54 117.966 65.203ZM130.82 71H128.304L128.848 69.997V63.724L128.219 63.044L129.868 62.602C129.936 63.146 129.97 63.707 129.987 64.285C130.871 63.571 131.857 62.976 132.894 62.602C134.662 62.602 135.359 63.418 135.359 65.271V70.558L136.107 71H133.676L134.22 70.133V65.713C134.22 64.081 133.846 63.299 132.673 63.299C132.095 63.299 131.041 63.928 130.004 64.642V65.866V70.49L130.82 71Z" fill="#333333"/>
</svg>
